<svg width="190" height="44" viewBox="0 0 190 44" fill="none" xmlns="http://www.w3.org/2000/svg">
<path d="M7.76 27.4H19.84V33H2.98023e-08V27.8L12 10.52H2.98023e-08V4.92H19.84V10.12L7.76 27.4ZM46.3481 10.68V33H39.5081V29.96C38.8148 30.9467 37.8681 31.7467 36.6681 32.36C35.4948 32.9467 34.1881 33.24 32.7481 33.24C31.0415 33.24 29.5348 32.8667 28.2281 32.12C26.9215 31.3467 25.9081 30.24 25.1881 28.8C24.4681 27.36 24.1081 25.6667 24.1081 23.72V10.68H30.9081V22.8C30.9081 24.2933 31.2948 25.4533 32.0681 26.28C32.8415 27.1067 33.8815 27.52 35.1881 27.52C36.5215 27.52 37.5748 27.1067 38.3481 26.28C39.1215 25.4533 39.5081 24.2933 39.5081 22.8V10.68H46.3481ZM59.7413 10.36C61.3146 10.36 62.6879 10.68 63.8613 11.32C65.0613 11.96 65.9813 12.8 66.6213 13.84V10.68H73.4613V32.96C73.4613 35.0133 73.0479 36.8667 72.2213 38.52C71.4213 40.2 70.1813 41.5333 68.5013 42.52C66.8479 43.5067 64.7813 44 62.3013 44C58.9946 44 56.3146 43.2133 54.2613 41.64C52.2079 40.0933 51.0346 37.9867 50.7413 35.32H57.5013C57.7146 36.1733 58.2213 36.84 59.0213 37.32C59.8213 37.8267 60.8079 38.08 61.9813 38.08C63.3946 38.08 64.5146 37.6667 65.3413 36.84C66.1946 36.04 66.6213 34.7467 66.6213 32.96V29.8C65.9546 30.84 65.0346 31.6933 63.8613 32.36C62.6879 33 61.3146 33.32 59.7413 33.32C57.9013 33.32 56.2346 32.8533 54.7413 31.92C53.2479 30.96 52.0613 29.6133 51.1813 27.88C50.3279 26.12 49.9013 24.0933 49.9013 21.8C49.9013 19.5067 50.3279 17.4933 51.1813 15.76C52.0613 14.0267 53.2479 12.6933 54.7413 11.76C56.2346 10.8267 57.9013 10.36 59.7413 10.36ZM66.6213 21.84C66.6213 20.1333 66.1413 18.7867 65.1813 17.8C64.2479 16.8133 63.1013 16.32 61.7413 16.32C60.3813 16.32 59.2213 16.8133 58.2613 17.8C57.3279 18.76 56.8613 20.0933 56.8613 21.8C56.8613 23.5067 57.3279 24.8667 58.2613 25.88C59.2213 26.8667 60.3813 27.36 61.7413 27.36C63.1013 27.36 64.2479 26.8667 65.1813 25.88C66.1413 24.8933 66.6213 23.5467 66.6213 21.84ZM77.0497 21.8C77.0497 19.5067 77.4764 17.4933 78.3297 15.76C79.2097 14.0267 80.3964 12.6933 81.8897 11.76C83.383 10.8267 85.0497 10.36 86.8897 10.36C88.463 10.36 89.8364 10.68 91.0097 11.32C92.2097 11.96 93.1297 12.8 93.7697 13.84V10.68H100.61V33H93.7697V29.84C93.103 30.88 92.1697 31.72 90.9697 32.36C89.7964 33 88.423 33.32 86.8497 33.32C85.0364 33.32 83.383 32.8533 81.8897 31.92C80.3964 30.96 79.2097 29.6133 78.3297 27.88C77.4764 26.12 77.0497 24.0933 77.0497 21.8ZM93.7697 21.84C93.7697 20.1333 93.2897 18.7867 92.3297 17.8C91.3964 16.8133 90.2497 16.32 88.8897 16.32C87.5297 16.32 86.3697 16.8133 85.4097 17.8C84.4764 18.76 84.0097 20.0933 84.0097 21.8C84.0097 23.5067 84.4764 24.8667 85.4097 25.88C86.3697 26.8667 87.5297 27.36 88.8897 27.36C90.2497 27.36 91.3964 26.8667 92.3297 25.88C93.2897 24.8933 93.7697 23.5467 93.7697 21.84ZM104.198 21.84C104.198 19.52 104.665 17.4933 105.598 15.76C106.558 14.0267 107.878 12.6933 109.558 11.76C111.265 10.8267 113.211 10.36 115.398 10.36C118.198 10.36 120.531 11.0933 122.398 12.56C124.291 14.0267 125.531 16.0933 126.118 18.76H118.838C118.225 17.0533 117.038 16.2 115.278 16.2C114.025 16.2 113.025 16.6933 112.278 17.68C111.531 18.64 111.158 20.0267 111.158 21.84C111.158 23.6533 111.531 25.0533 112.278 26.04C113.025 27 114.025 27.48 115.278 27.48C117.038 27.48 118.225 26.6267 118.838 24.92H126.118C125.531 27.5333 124.291 29.5867 122.398 31.08C120.505 32.5733 118.171 33.32 115.398 33.32C113.211 33.32 111.265 32.8533 109.558 31.92C107.878 30.9867 106.558 29.6533 105.598 27.92C104.665 26.1867 104.198 24.16 104.198 21.84ZM139.937 33.32C137.75 33.32 135.777 32.8533 134.017 31.92C132.284 30.9867 130.91 29.6533 129.897 27.92C128.91 26.1867 128.417 24.16 128.417 21.84C128.417 19.5467 128.924 17.5333 129.937 15.8C130.95 14.04 132.337 12.6933 134.097 11.76C135.857 10.8267 137.83 10.36 140.017 10.36C142.204 10.36 144.177 10.8267 145.937 11.76C147.697 12.6933 149.084 14.04 150.097 15.8C151.11 17.5333 151.617 19.5467 151.617 21.84C151.617 24.1333 151.097 26.16 150.057 27.92C149.044 29.6533 147.644 30.9867 145.857 31.92C144.097 32.8533 142.124 33.32 139.937 33.32ZM139.937 27.4C141.244 27.4 142.35 26.92 143.257 25.96C144.19 25 144.657 23.6267 144.657 21.84C144.657 20.0533 144.204 18.68 143.297 17.72C142.417 16.76 141.324 16.28 140.017 16.28C138.684 16.28 137.577 16.76 136.697 17.72C135.817 18.6533 135.377 20.0267 135.377 21.84C135.377 23.6267 135.804 25 136.657 25.96C137.537 26.92 138.63 27.4 139.937 27.4ZM158.686 8.36C157.486 8.36 156.499 8.01333 155.726 7.32C154.979 6.6 154.606 5.72 154.606 4.68C154.606 3.61333 154.979 2.73333 155.726 2.04C156.499 1.32 157.486 0.959998 158.686 0.959998C159.859 0.959998 160.819 1.32 161.566 2.04C162.339 2.73333 162.726 3.61333 162.726 4.68C162.726 5.72 162.339 6.6 161.566 7.32C160.819 8.01333 159.859 8.36 158.686 8.36ZM162.086 10.68V33H155.246V10.68H162.086ZM180.643 10.44C183.256 10.44 185.336 11.2933 186.883 13C188.456 14.68 189.243 17 189.243 19.96V33H182.443V20.88C182.443 19.3867 182.056 18.2267 181.283 17.4C180.509 16.5733 179.469 16.16 178.163 16.16C176.856 16.16 175.816 16.5733 175.043 17.4C174.269 18.2267 173.883 19.3867 173.883 20.88V33H167.043V10.68H173.883V13.64C174.576 12.6533 175.509 11.88 176.683 11.32C177.856 10.7333 179.176 10.44 180.643 10.44Z" fill="#FFCC03"/>
</svg>
